<svg width="302" height="302" viewBox="0 0 302 302" fill="none" xmlns="http://www.w3.org/2000/svg">
<rect opacity="0.503021" width="302" height="302" rx="8" fill="#00FFF8"/>
<path fill-rule="evenodd" clip-rule="evenodd" d="M151 136C141 136 132.46 142.22 129 151C132.46 159.78 141 166 151 166C161.01 166 169.54 159.78 173 151C169.54 142.22 161.01 136 151 136ZM151 161C145.48 161 141 156.52 141 151C141 145.48 145.48 141 151 141C156.52 141 161 145.48 161 151C161 156.52 156.52 161 151 161ZM145 151C145 147.69 147.69 145 151 145C154.31 145 157 147.69 157 151C157 154.31 154.31 157 151 157C147.69 157 145 154.31 145 151Z" fill="white"/>
</svg>
